<svg width="511" height="511" xmlns="http://www.w3.org/2000/svg">

 <g>
  <title>background</title>
  <rect fill="none" id="canvas_background" height="513" width="513" y="-1" x="-1"/>
 </g>
 <g>
  <title>Layer 1</title>
  <g id="svg_1">
   <path fill="#FFF093" id="svg_2" d="m456.087006,407.360992c-16.174988,-26.403992 -25.084991,-40.947998 -25.084991,-72.860992l0,-58.973999c0,-46.227005 -17.334991,-90.272018 -48.813019,-124.021011c-31.540985,-33.817001 -73.830994,-53.434998 -119.186981,-55.337997l0,-18.400993c9.290009,-3.138 16,-11.93 16,-22.265999l0,-32c0,-12.958 -10.541992,-23.5 -23.5,-23.5s-23.5,10.542 -23.5,23.5l0,32c0,10.335999 6.709991,19.127998 16,22.265999l0,18.392998c-42.945007,1.778 -83.130005,18.908005 -114.359009,49.046005c-34.592003,33.382004 -53.642006,78.235001 -53.642006,126.294998l0,63c0,31.912994 -8.911003,46.458008 -25.109001,72.89801c-2.942997,4.803986 -3.068996,10.828003 -0.327999,15.720001c2.764,4.935974 7.803001,7.881989 13.478001,7.881989l179.959007,0l0,17.908997c-13.759003,3.373993 -24,15.806 -24,30.591003c0,17.368988 14.130997,31.5 31.5,31.5s31.5,-14.131012 31.5,-31.5c0,-14.785004 -10.240997,-27.216003 -24,-30.591003l0,-17.908997l179.958984,0c5.675018,0 10.713013,-2.946014 13.477997,-7.881989c2.740997,-4.891998 2.615021,-10.916016 -0.350983,-15.757019zm-184.085999,72.139008c0,9.097992 -7.402008,16.5 -16.5,16.5s-16.5,-7.402008 -16.5,-16.5s7.402008,-16.5 16.5,-16.5s16.5,7.402008 16.5,16.5zm-25,-456c0,-4.687 3.813004,-8.5 8.5,-8.5s8.5,3.813 8.5,8.5l0,32c0,4.687 -3.812988,8.5 -8.5,8.5s-8.5,-3.813 -8.5,-8.5l0,-32zm196.350006,392.287994c-0.110016,0.196991 -0.231018,0.212006 -0.390991,0.212006l-374.918022,0c-0.158997,0 -0.280998,-0.015015 -0.390999,-0.212006c-0.147003,-0.261993 -0.035004,-0.445007 0.054001,-0.591003c17.020996,-27.783997 27.295998,-44.554993 27.295998,-80.696991l0,-63c0,-43.953003 17.421997,-84.972 49.056999,-115.501999c30.201004,-29.146004 69.559998,-44.998001 111.391998,-44.998001c1.964005,0 3.935989,0.035004 5.910995,0.105003c41.774994,1.484993 80.790009,19.466988 109.858002,50.631996c28.877991,30.962006 44.782013,71.373993 44.782013,113.790009l0,58.972992c0,36.141998 10.273987,52.911987 27.317993,80.734009c0.066986,0.108978 0.178986,0.291992 0.032013,0.553986z"/>
   <path fill="#FFF093" id="svg_3" d="m321.825989,144.919998c-3.638,-1.981995 -8.192993,-0.638992 -10.174011,2.999008c-1.980988,3.636993 -0.638977,8.191986 2.999023,10.173996c28.373993,15.455994 50.894989,42.102997 61.789978,73.106995c1.084015,3.085007 3.981018,5.016006 7.076019,5.016006c0.824982,0 1.664001,-0.137009 2.485992,-0.42601c3.90799,-1.372986 5.963013,-5.653992 4.588989,-9.561996c-12.287994,-34.970001 -36.708984,-63.845993 -68.765991,-81.307999z"/>
   <path fill="#FFF093" id="svg_4" d="m289.339996,132.169006c-5.556,-1.404999 -11.252991,-2.468002 -16.93399,-3.160004c-4.115021,-0.500992 -7.85202,2.42601 -8.35202,6.537003c-0.500977,4.112 2.426025,7.850998 6.538025,8.352005c5.054993,0.615997 10.125,1.563004 15.070984,2.813004c0.617004,0.155991 1.235016,0.229996 1.843994,0.229996c3.352997,0 6.406006,-2.264999 7.266022,-5.662994c1.014984,-4.015015 -1.417023,-8.094009 -5.433014,-9.109009z"/>
  </g>
  <g id="svg_5"/>
  <g id="svg_6"/>
  <g id="svg_7"/>
  <g id="svg_8"/>
  <g id="svg_9"/>
  <g id="svg_10"/>
  <g id="svg_11"/>
  <g id="svg_12"/>
  <g id="svg_13"/>
  <g id="svg_14"/>
  <g id="svg_15"/>
  <g id="svg_16"/>
  <g id="svg_17"/>
  <g id="svg_18"/>
  <g id="svg_19"/>
 </g>
</svg>